<?xml version="1.0" encoding="UTF-8" standalone="no"?>
<!-- Generator: Adobe Illustrator 16.0.0, SVG Export Plug-In . SVG Version: 6.00 Build 0)  -->

<svg
   xmlns:dc="http://purl.org/dc/elements/1.1/"
   xmlns:cc="http://creativecommons.org/ns#"
   xmlns:rdf="http://www.w3.org/1999/02/22-rdf-syntax-ns#"
   xmlns:svg="http://www.w3.org/2000/svg"
   xmlns="http://www.w3.org/2000/svg"
   xmlns:sodipodi="http://sodipodi.sourceforge.net/DTD/sodipodi-0.dtd"
   xmlns:inkscape="http://www.inkscape.org/namespaces/inkscape"
   version="1.1"
   id="Capa_1"
   x="0px"
   y="0px"
   width="571.2px"
   height="571.2px"
   viewBox="0 0 571.2 571.2"
   style="enable-background:new 0 0 571.2 571.2;"
   xml:space="preserve"
   inkscape:version="0.48.4 r9939"
   sodipodi:docname="bulb_off.svg"><metadata
     id="metadata41"><rdf:RDF><cc:Work
         rdf:about=""><dc:format>image/svg+xml</dc:format><dc:type
           rdf:resource="http://purl.org/dc/dcmitype/StillImage" /><dc:title></dc:title></cc:Work></rdf:RDF></metadata><defs
     id="defs39"><linearGradient
       id="linearGradient3786"><stop
         id="stop3794"
         offset="0"
         style="stop-color:#ffff00;stop-opacity:0.96899223;" /><stop
         style="stop-color:#fff700;stop-opacity:0;"
         offset="1"
         id="stop3790" /></linearGradient></defs><sodipodi:namedview
     pagecolor="#ffffff"
     bordercolor="#666666"
     borderopacity="1"
     objecttolerance="10"
     gridtolerance="10"
     guidetolerance="10"
     inkscape:pageopacity="0"
     inkscape:pageshadow="2"
     inkscape:window-width="1280"
     inkscape:window-height="975"
     id="namedview37"
     showgrid="false"
     inkscape:zoom="0.82633051"
     inkscape:cx="388.9806"
     inkscape:cy="257.13155"
     inkscape:window-x="0"
     inkscape:window-y="25"
     inkscape:window-maximized="1"
     inkscape:current-layer="g3" /><g
     id="g3"><path
       d="m 353.601,496.4 c 0,7.507 -6.093,13.6 -13.601,13.6 l -108.8,0 c -7.507,0 -13.6,-6.093 -13.6,-13.6 0,-7.508 6.093,-13.601 13.6,-13.601 l 108.8,0 c 7.508,0.001 13.601,6.094 13.601,13.601 z M 340,516.8 l -108.8,0 c -8.949,0 -15.878,8.644 -12.899,18.034 1.795,5.664 7.527,9.166 13.471,9.166 l 0.204,0 c 7.854,0 15.035,4.44 18.55,11.465 l 0.143,0.286 c 4.74,9.465 14.416,15.449 25.004,15.449 l 19.856,0 c 10.588,0 20.264,-5.984 24.997,-15.449 l 0.143,-0.286 C 324.185,548.441 331.365,544 339.219,544 l 0.204,0 c 5.943,0 11.676,-3.502 13.471,-9.166 C 355.878,525.443 348.949,516.8 340,516.8 z m 13.601,-54.4 c 0,7.507 -6.093,13.6 -13.601,13.6 l -108.8,0 c -7.507,0 -13.6,-6.093 -13.6,-13.6 0,-7.242 5.678,-13.11 12.818,-13.519 C 221.952,372.354 142.8,355.307 142.8,265.2 c 0,-78.866 63.934,-142.8 142.8,-142.8 78.866,0 142.8,63.934 142.8,142.8 0,90.106 -79.152,107.154 -87.618,183.682 7.14,0.408 12.819,6.276 12.819,13.518 z M 254.259,160.548 c -2.115,-5.216 -8.051,-7.725 -13.287,-5.624 -34.755,14.083 -61.104,44.186 -70.482,80.525 -1.408,5.46 1.877,11.016 7.331,12.424 0.85,0.224 1.707,0.326 2.55,0.326 4.542,0 8.684,-3.053 9.874,-7.65 7.766,-30.11 29.594,-55.053 58.385,-66.715 5.221,-2.113 7.737,-8.057 5.629,-13.286 z"
       id="path5"
       style="fill:#333333;fill-opacity:1;stroke:#000000"
       inkscape:connector-curvature="0"
       sodipodi:nodetypes="ssssscssscssccssccsscssssscssscsccccsccc" /></g><g
     id="g7" /><g
     id="g9" /><g
     id="g11" /><g
     id="g13" /><g
     id="g15" /><g
     id="g17" /><g
     id="g19" /><g
     id="g21" /><g
     id="g23" /><g
     id="g25" /><g
     id="g27" /><g
     id="g29" /><g
     id="g31" /><g
     id="g33" /><g
     id="g35" /></svg>