<?xml version="1.0" encoding="utf-8"?>
<!-- Generator: Adobe Illustrator 15.1.0, SVG Export Plug-In . SVG Version: 6.00 Build 0)  -->
<!DOCTYPE svg PUBLIC "-//W3C//DTD SVG 1.1//EN" "http://www.w3.org/Graphics/SVG/1.1/DTD/svg11.dtd">
<svg version="1.1" id="Livello_1" xmlns="http://www.w3.org/2000/svg" xmlns:xlink="http://www.w3.org/1999/xlink" x="0px" y="0px"
	 width="595.28px" height="841.89px" viewBox="0 0 595.28 841.89" enable-background="new 0 0 595.28 841.89" xml:space="preserve">
<path fill="#F2F2F2" d="M561.791,495.246c1.532-3.789,2.971-7.622,4.318-11.522C564.762,487.624,563.323,491.457,561.791,495.246z"
	/>
<linearGradient id="SVGID_1_" gradientUnits="userSpaceOnUse" x1="503.1934" y1="1111.5381" x2="503.1934" y2="828.541" gradientTransform="matrix(0.9451 0.3268 0.3268 -0.9451 -196.2289 1147.5116)">
	<stop  offset="0" style="stop-color:#E6E6E6"/>
	<stop  offset="1" style="stop-color:#F2F2F2"/>
</linearGradient>
<path fill="url(#SVGID_1_)" d="M561.33,496.313c0.145-0.358,0.315-0.717,0.461-1.067
	C561.646,495.597,561.475,495.955,561.33,496.313z"/>
<g fill-opacity="0">
	<animate attributeName="fill-opacity"
		values="1;0" dur="10s"
		repeatCount="1"/>
	<g>
		<g>
			<path fill="#F2F2F2" d="M267.428,621.476c78.256,27.057,155.501,9.048,172.538-40.219c12.637-36.54-11.433-80.01-56.645-111.079
				c7.84-13.341,14.493-27.637,19.746-42.821c17.113-49.505,16.857-100.79,2.519-147.269
				c97.375,42.562,153.512,144.46,140.107,247.619c5.91-9.927,11.126-20.416,15.637-31.393
				c-47.38,115.646-177.433,175.461-297,134.115c-28.769-9.943-54.353-24.914-76.216-43.521c4.609-0.188,9.205-0.504,13.771-0.956
				C219.899,600.359,242.155,612.735,267.428,621.476z"/>
			<path fill="#F2F2F2" d="M561.791,495.246c-0.146,0.351-0.316,0.709-0.461,1.067c-4.511,10.977-9.727,21.466-15.637,31.393
				c13.404-103.158-42.732-205.057-140.107-247.619c-13.209-42.813-38.384-81.491-73.016-110.985
				c28.679-1.131,58.053,2.894,86.821,12.837c123.848,42.822,189.536,177.928,146.718,301.784
				C564.762,487.624,563.323,491.457,561.791,495.246z"/>
			
				<linearGradient id="SVGID_2_" gradientUnits="userSpaceOnUse" x1="341.7871" y1="1113.7334" x2="341.7871" y2="828.2285" gradientTransform="matrix(0.9451 0.3268 0.3268 -0.9451 -196.2289 1147.5116)">
				<stop  offset="0" style="stop-color:#E6E6E6"/>
				<stop  offset="1" style="stop-color:#F2F2F2"/>
			</linearGradient>
			<path fill="url(#SVGID_2_)" d="M561.791,495.246c-0.146,0.351-0.316,0.709-0.461,1.067c-4.511,10.977-9.727,21.466-15.637,31.393
				c13.404-103.158-42.732-205.057-140.107-247.619c-13.209-42.813-38.384-81.491-73.016-110.985
				c28.679-1.131,58.053,2.894,86.821,12.837c123.848,42.822,189.536,177.928,146.718,301.784
				C564.762,487.624,563.323,491.457,561.791,495.246z"/>
			<path fill="#F2F2F2" d="M439.966,581.257c-17.036,49.267-94.281,67.275-172.538,40.219c-25.273-8.74-47.529-21.116-65.543-35.524
				c74.381-7.306,142.609-49.633,181.436-115.773C428.533,501.247,452.603,544.717,439.966,581.257z"/>
			<defs>
				<filter id="Adobe_OpacityMaskFilter" filterUnits="userSpaceOnUse" x="201.885" y="470.178" width="241.427" height="163.883">
					<feFlood  style="flood-color:white;flood-opacity:1" result="back"/>
					<feBlend  in="SourceGraphic" in2="back" mode="normal"/>
				</filter>
			</defs>
			<mask maskUnits="userSpaceOnUse" x="201.885" y="470.178" width="241.427" height="163.883" id="SVGID_3_">
				<g filter="url(#Adobe_OpacityMaskFilter)">
					<defs>
						
							<filter id="Adobe_OpacityMaskFilter_1_" filterUnits="userSpaceOnUse" x="201.885" y="470.178" width="241.427" height="163.883">
							<feFlood  style="flood-color:white;flood-opacity:1" result="back"/>
							<feBlend  in="SourceGraphic" in2="back" mode="normal"/>
						</filter>
					</defs>
					<mask maskUnits="userSpaceOnUse" x="201.885" y="470.178" width="241.427" height="163.883" id="SVGID_3_">
						<g filter="url(#Adobe_OpacityMaskFilter_1_)">
						</g>
					</mask>
					
						<linearGradient id="SVGID_4_" gradientUnits="userSpaceOnUse" x1="304.4727" y1="837.4463" x2="304.4727" y2="648.6721" gradientTransform="matrix(0.9451 0.3268 0.3268 -0.9451 -196.2289 1147.5116)">
						<stop  offset="0" style="stop-color:#000000"/>
						<stop  offset="0.0561" style="stop-color:#191919"/>
						<stop  offset="0.1688" style="stop-color:#454545"/>
						<stop  offset="0.2867" style="stop-color:#6B6B6B"/>
						<stop  offset="0.4086" style="stop-color:#898989"/>
						<stop  offset="0.5356" style="stop-color:#A1A1A1"/>
						<stop  offset="0.6701" style="stop-color:#B2B2B2"/>
						<stop  offset="0.8171" style="stop-color:#BCBCBC"/>
						<stop  offset="1" style="stop-color:#BFBFBF"/>
					</linearGradient>
					<path mask="url(#SVGID_3_)" fill="url(#SVGID_4_)" d="M439.966,581.257c-17.036,49.267-94.281,67.275-172.538,40.219
						c-25.273-8.74-47.529-21.116-65.543-35.524c74.381-7.306,142.609-49.633,181.436-115.773
						C428.533,501.247,452.603,544.717,439.966,581.257z"/>
				</g>
			</mask>
			
				<linearGradient id="SVGID_5_" gradientUnits="userSpaceOnUse" x1="304.4727" y1="837.4463" x2="304.4727" y2="648.6721" gradientTransform="matrix(0.9451 0.3268 0.3268 -0.9451 -196.2289 1147.5116)">
				<stop  offset="0" style="stop-color:#FFFFFF"/>
				<stop  offset="0.0896" style="stop-color:#FFFFFF"/>
				<stop  offset="1" style="stop-color:#FFFFFF"/>
			</linearGradient>
			<path fill="url(#SVGID_5_)" d="M439.966,581.257c-17.036,49.267-94.281,67.275-172.538,40.219
				c-25.273-8.74-47.529-21.116-65.543-35.524c74.381-7.306,142.609-49.633,181.436-115.773
				C428.533,501.247,452.603,544.717,439.966,581.257z"/>
		</g>
		<path opacity="0.25" fill="#F9EA32" d="M561.791,495.246c-0.146,0.351-0.316,0.709-0.461,1.067
			c-1.353,3.294-2.791,6.521-4.268,9.722c-0.389,0.845-0.798,1.682-1.199,2.526c-1.212,2.544-2.467,5.062-3.76,7.545
			c-0.342,0.657-0.67,1.314-1.024,1.972c-1.732,3.261-3.513,6.479-5.386,9.628c0.004-0.017,0.009-0.051,0.009-0.06
			C489.39,622.38,372.571,667.865,264.33,630.429c-28.769-9.943-54.353-24.914-76.216-43.521c4.609-0.188,9.205-0.504,13.771-0.956
			c74.381-7.306,142.609-49.633,181.436-115.773c7.84-13.341,14.493-27.637,19.746-42.821c17.113-49.505,16.857-100.79,2.519-147.269
			c-13.209-42.813-38.384-81.491-73.016-110.985c28.679-1.131,58.053,2.894,86.821,12.837
			c123.848,42.822,189.536,177.928,146.718,301.784C564.762,487.624,563.323,491.457,561.791,495.246z"/>
	</g>
	<polygon fill="#F9EA32" points="214.859,453.756 196.082,425.12 163.05,434.133 184.482,407.422 165.704,378.782 197.725,390.906 
		219.161,364.186 217.518,398.409 249.538,410.533 216.506,419.546 "/>
	<polygon fill="#F9EA32" points="224.368,290.398 209.384,281.833 193.833,289.318 197.357,272.418 185.429,259.931 202.585,258.066 
		210.771,242.865 217.851,258.612 234.832,261.694 222.059,273.293 "/>
	<polygon fill="#F9EA32" points="67.04,307.332 46.56,313.994 46.56,335.52 33.897,318.104 13.421,324.757 26.075,307.332 
		13.421,289.916 33.897,296.565 46.56,279.14 46.56,300.679 "/>
</g>
</svg>
